<svg id="Capa_1" data-name="Capa 1" xmlns="http://www.w3.org/2000/svg" viewBox="0 0 216.77 96.1"><defs><style>.cls-1{fill:#73b5a2;}.cls-2{fill:#7e92aa;}.cls-3{fill:#3eace1;}.cls-4{fill:#313d49;}</style></defs><title>JMB</title><path class="cls-1" d="M76,122.3c-.05.15-.09.31-.14.46C76,122.61,76,122.45,76,122.3Z" transform="translate(-12.71 -50.84)"/><path class="cls-1" d="M74.27,126.91l-.26.52Z" transform="translate(-12.71 -50.84)"/><path class="cls-1" d="M77.34,114.63l0,.51Z" transform="translate(-12.71 -50.84)"/><path class="cls-1" d="M76.45,120.75c0,.19-.09.38-.14.56C76.36,121.13,76.41,120.94,76.45,120.75Z" transform="translate(-12.71 -50.84)"/><path class="cls-1" d="M75.42,124.17a1,1,0,0,1,0,.1A1,1,0,0,0,75.42,124.17Z" transform="translate(-12.71 -50.84)"/><path class="cls-1" d="M77.23,116.18c0,.2,0,.39-.07.59C77.19,116.57,77.21,116.38,77.23,116.18Z" transform="translate(-12.71 -50.84)"/><path class="cls-1" d="M77,117.71l-.09.62Z" transform="translate(-12.71 -50.84)"/><path class="cls-1" d="M76.79,119.24c0,.2-.08.4-.13.6C76.71,119.64,76.75,119.44,76.79,119.24Z" transform="translate(-12.71 -50.84)"/><path class="cls-1" d="M74.88,125.55l-.21.47Z" transform="translate(-12.71 -50.84)"/><path class="cls-1" d="M72.88,129.52l-.32.52Z" transform="translate(-12.71 -50.84)"/><path class="cls-1" d="M73.6,128.23c-.09.18-.19.36-.29.53C73.41,128.59,73.51,128.41,73.6,128.23Z" transform="translate(-12.71 -50.84)"/><path class="cls-1" d="M68.05,135.78l-.43.43Z" transform="translate(-12.71 -50.84)"/><path class="cls-1" d="M67,136.79l-.47.43Z" transform="translate(-12.71 -50.84)"/><path class="cls-2" d="M51.09,127.06a20,20,0,0,1-19.11-14H12.71A32.34,32.34,0,0,0,45.05,145.4a33,33,0,0,0,6.57-.67V127C51.44,127,51.27,127.06,51.09,127.06Z" transform="translate(-12.71 -50.84)"/><path class="cls-1" d="M70,133.61c-.05.07-.11.13-.17.2S70,133.68,70,133.61Z" transform="translate(-12.71 -50.84)"/><path class="cls-1" d="M68.68,135.12l.37-.4Z" transform="translate(-12.71 -50.84)"/><path class="cls-1" d="M72.08,130.8l-.32.48Z" transform="translate(-12.71 -50.84)"/><path class="cls-1" d="M71.2,132.07l-.3.4Z" transform="translate(-12.71 -50.84)"/><path class="cls-1" d="M53.6,144.24l-.56.16Z" transform="translate(-12.71 -50.84)"/><path class="cls-1" d="M57.92,142.72l-.62.27Z" transform="translate(-12.71 -50.84)"/><path class="cls-1" d="M63.5,139.61l-.45.31Z" transform="translate(-12.71 -50.84)"/><path class="cls-1" d="M56.54,143.29l-.63.23Z" transform="translate(-12.71 -50.84)"/><path class="cls-1" d="M60.57,141.43l-.53.28Z" transform="translate(-12.71 -50.84)"/><path class="cls-1" d="M59.27,142.1l-.6.28Z" transform="translate(-12.71 -50.84)"/><path class="cls-1" d="M61.85,140.69c-.12.08-.24.14-.36.21C61.61,140.83,61.73,140.77,61.85,140.69Z" transform="translate(-12.71 -50.84)"/><path class="cls-1" d="M64.74,138.7l-.49.38Z" transform="translate(-12.71 -50.84)"/><path class="cls-1" d="M65.9,137.77c-.17.13-.33.27-.49.41C65.57,138,65.73,137.9,65.9,137.77Z" transform="translate(-12.71 -50.84)"/><path class="cls-1" d="M55.11,143.79l-.62.2Z" transform="translate(-12.71 -50.84)"/><polygon class="cls-3" points="64.67 62.22 64.67 0.56 38.91 0.56 38.91 56.18 38.91 62.22 64.67 62.22"/><path class="cls-4" d="M69.84,133.81c.06-.07.12-.13.17-.2.31-.37.61-.75.89-1.14l.3-.4c.19-.26.38-.52.56-.79l.32-.48.48-.76.32-.52c.14-.25.29-.5.43-.76s.2-.35.29-.53.28-.53.41-.8l.26-.52c.14-.3.27-.59.4-.89l.21-.47c.17-.42.34-.85.5-1.28a1,1,0,0,0,0-.1c.17-.46.33-.94.48-1.41,0-.15.09-.31.14-.46.09-.33.19-.66.27-1s.1-.37.14-.56.15-.61.21-.91.09-.4.13-.6.11-.61.16-.91l.09-.62c0-.31.09-.62.12-.94s0-.39.07-.59c0-.35.06-.69.08-1l0-.51c0-.52,0-1,0-1.57H51.62v31.67h0c.48-.1,1-.21,1.42-.33l.56-.16.89-.25.62-.2.8-.27.63-.23.76-.3.62-.27.75-.34.6-.28c.26-.12.51-.26.77-.39l.53-.28.92-.53c.12-.07.24-.13.36-.21.4-.24.81-.5,1.2-.77l.45-.31.75-.53.49-.38.67-.52c.16-.14.32-.28.49-.41l.63-.55.47-.43.62-.58.43-.43c.22-.22.42-.44.63-.66l.37-.4C69.32,134.42,69.58,134.12,69.84,133.81Z" transform="translate(-12.71 -50.84)"/><polygon class="cls-4" points="107.31 80.88 118.91 63.94 107.31 47 95.7 63.94 107.31 80.88"/><polygon class="cls-4" points="75.11 94 95.63 94 95.63 64.05 75.11 94"/><polygon class="cls-4" points="118.99 64.05 118.99 94 139.5 94 118.99 64.05"/><polygon class="cls-3" points="95.63 63.84 95.7 63.94 107.31 47 75.11 0 75.11 94 95.63 64.05 95.63 63.84"/><polygon class="cls-2" points="118.99 63.84 118.99 64.05 139.5 94 139.5 0 107.31 47 118.91 63.94 118.99 63.84"/><path class="cls-3" d="M229.49,81.77A28.91,28.91,0,0,0,200.67,53H165.08V89.32H185V70.76h13.6a11,11,0,0,1,11,11h0A11,11,0,0,1,206,89.83c.29.06.57.11.85.18l.6.14c.31.07.61.15.91.24l.57.16c.31.09.63.2.94.31l.49.16c.38.14.75.28,1.12.44l.29.11c.47.2.93.41,1.39.63l.17.09c.39.19.78.39,1.16.6l.39.23.9.53.43.28.82.55.44.31.78.59.41.32c.27.21.53.43.78.65l.36.32.83.77.26.25a28.72,28.72,0,0,1,2,2.23l0,0a28.66,28.66,0,0,0,6.51-18.18Z" transform="translate(-12.71 -50.84)"/><path class="cls-1" d="M219.83,96.67l.83.77Z" transform="translate(-12.71 -50.84)"/><path class="cls-1" d="M218.69,95.7c.27.21.53.43.78.65C219.22,96.13,219,95.91,218.69,95.7Z" transform="translate(-12.71 -50.84)"/><path class="cls-1" d="M220.92,97.69a28.72,28.72,0,0,1,2,2.23A28.72,28.72,0,0,0,220.92,97.69Z" transform="translate(-12.71 -50.84)"/><path class="cls-1" d="M213.36,92.29c.39.19.78.39,1.16.6C214.14,92.68,213.75,92.48,213.36,92.29Z" transform="translate(-12.71 -50.84)"/><path class="cls-1" d="M214.91,93.12l.9.53Z" transform="translate(-12.71 -50.84)"/><path class="cls-1" d="M206.88,90c-.28-.07-.56-.12-.85-.18h0C206.32,89.89,206.6,89.94,206.88,90Z" transform="translate(-12.71 -50.84)"/><path class="cls-1" d="M217.5,94.79l.78.59Z" transform="translate(-12.71 -50.84)"/><path class="cls-1" d="M216.24,93.93l.82.55Z" transform="translate(-12.71 -50.84)"/><path class="cls-1" d="M207.48,90.15c.31.07.61.15.91.24C208.09,90.3,207.79,90.22,207.48,90.15Z" transform="translate(-12.71 -50.84)"/><path class="cls-1" d="M211.8,91.57c.47.2.93.41,1.39.63C212.73,92,212.27,91.77,211.8,91.57Z" transform="translate(-12.71 -50.84)"/><path class="cls-2" d="M206,110.07a11,11,0,0,1,3.56,8.06h0a11,11,0,0,1-11,11H185V110.58h-19.9V147h35.59a28.9,28.9,0,0,0,28.82-28.81h0A28.66,28.66,0,0,0,223,100,28.91,28.91,0,0,1,206,110.07Z" transform="translate(-12.71 -50.84)"/><path class="cls-1" d="M210.39,91c.38.14.75.28,1.12.44C211.14,91.3,210.77,91.16,210.39,91Z" transform="translate(-12.71 -50.84)"/><path class="cls-1" d="M209,90.55c.31.09.63.2.94.31C209.59,90.75,209.27,90.64,209,90.55Z" transform="translate(-12.71 -50.84)"/><path class="cls-4" d="M220.92,97.69l-.26-.25-.83-.77-.36-.32c-.25-.22-.51-.44-.78-.65l-.41-.32-.78-.59-.44-.31-.82-.55-.43-.28-.9-.53-.39-.23c-.38-.21-.77-.41-1.16-.6l-.17-.09c-.46-.22-.92-.43-1.39-.63l-.29-.11c-.37-.16-.74-.3-1.12-.44l-.49-.16c-.31-.11-.63-.22-.94-.31l-.57-.16c-.3-.09-.6-.17-.91-.24l-.6-.14c-.28-.07-.56-.12-.85-.18a10.93,10.93,0,0,1-7.45,2.94H185V89.32h-19.9v21.26H185v-3.45h13.6a10.93,10.93,0,0,1,7.45,2.94A28.91,28.91,0,0,0,223,100h0l0,0A28.72,28.72,0,0,0,220.92,97.69Z" transform="translate(-12.71 -50.84)"/></svg>